<?xml version="1.0" encoding="UTF-8" standalone="no"?>
<svg
   xmlns:dc="http://purl.org/dc/elements/1.1/"
   xmlns:cc="http://creativecommons.org/ns#"
   xmlns:rdf="http://www.w3.org/1999/02/22-rdf-syntax-ns#"
   xmlns:svg="http://www.w3.org/2000/svg"
   xmlns="http://www.w3.org/2000/svg"
   xmlns:xlink="http://www.w3.org/1999/xlink"
   xmlns:sodipodi="http://sodipodi.sourceforge.net/DTD/sodipodi-0.dtd"
   xmlns:inkscape="http://www.inkscape.org/namespaces/inkscape"
   viewBox="0 0 198.95874 200.00001"
   version="1.1"
   id="svg10"
   sodipodi:docname="biogitflow-logo.svg"
   width="198.95874"
   height="200"
   inkscape:version="0.92.3 (2405546, 2018-03-11)"
   inkscape:export-filename="/home/phupe/git/gitlab/pipeline_templates/nf-geniac/docs/images/geniac-logo.png"
   inkscape:export-xdpi="96"
   inkscape:export-ydpi="96">
  <metadata
     id="metadata16">
    <rdf:RDF>
      <cc:Work
         rdf:about="">
        <dc:format>image/svg+xml</dc:format>
        <dc:type
           rdf:resource="http://purl.org/dc/dcmitype/StillImage" />
        <dc:title></dc:title>
      </cc:Work>
    </rdf:RDF>
  </metadata>
  <defs
     id="defs14">
    <linearGradient
       inkscape:collect="always"
       id="linearGradient2963">
      <stop
         style="stop-color:#b2b2b2;stop-opacity:1;"
         offset="0"
         id="stop2959" />
      <stop
         style="stop-color:#b2b2b2;stop-opacity:0;"
         offset="1"
         id="stop2961" />
    </linearGradient>
    <linearGradient
       inkscape:collect="always"
       id="linearGradient2949">
      <stop
         style="stop-color:#4f4f4f;stop-opacity:1;"
         offset="0"
         id="stop2945" />
      <stop
         style="stop-color:#4f4f4f;stop-opacity:0;"
         offset="1"
         id="stop2947" />
    </linearGradient>
    <linearGradient
       inkscape:collect="always"
       xlink:href="#linearGradient2949"
       id="linearGradient2951"
       x1="-705.50104"
       y1="-14.301007"
       x2="-664.12384"
       y2="-86.529701"
       gradientUnits="userSpaceOnUse" />
    <linearGradient
       inkscape:collect="always"
       xlink:href="#linearGradient2963"
       id="linearGradient2965"
       x1="-672.83478"
       y1="23.446648"
       x2="-718.93054"
       y2="-36.078503"
       gradientUnits="userSpaceOnUse" />
  </defs>
  <sodipodi:namedview
     pagecolor="#ffffff"
     bordercolor="#666666"
     borderopacity="1"
     objecttolerance="10"
     gridtolerance="10"
     guidetolerance="10"
     inkscape:pageopacity="0"
     inkscape:pageshadow="2"
     inkscape:window-width="1920"
     inkscape:window-height="1021"
     id="namedview12"
     showgrid="false"
     fit-margin-top="0"
     fit-margin-left="0"
     fit-margin-right="0"
     fit-margin-bottom="0"
     inkscape:zoom="0.86716886"
     inkscape:cx="22.151788"
     inkscape:cy="160.79035"
     inkscape:window-x="0"
     inkscape:window-y="0"
     inkscape:window-maximized="1"
     inkscape:current-layer="svg10"
     inkscape:pagecheckerboard="true" />
  <circle
     style="opacity:1;fill:#ffffff;fill-opacity:1;stroke:none;stroke-width:3.7795279;stroke-miterlimit:4;stroke-dasharray:3.77952765, 7.5590553;stroke-dashoffset:0;stroke-opacity:1"
     id="path815"
     cx="99.479385"
     cy="100.00002"
     r="76.108009" />
  <path
     style="fill:#ff6500;fill-opacity:0.99607843;stroke-width:1.06666672"
     d="m 110.64552,0.00836876 c -3.54405,-0.07382491 -6.56478,0.3366132 -7.43693,1.39724164 -0.6577,0.7997993 -2.06771,4.4655668 -3.13394,8.1468126 -1.066299,3.681236 -2.816616,7.144095 -3.890341,7.69469 -1.073665,0.550599 -4.997411,1.299684 -8.718652,1.664863 -7.427923,0.728917 -6.975317,1.001947 -13.559764,-8.20035 C 69.700027,4.833543 66.88384,4.4378822 58.167222,8.5016784 49.081502,12.737637 48.591334,13.770958 51.078168,23.42484 l 2.0959,8.138368 -3.319846,3.47057 c -1.826259,1.908932 -5.048316,4.540678 -7.160874,5.848129 l -3.841023,2.377564 -7.149551,-3.208584 C 25.264502,37.161557 24.268873,37.003926 21.691025,38.464905 19.123347,39.920191 11.0999,52.477258 11.065284,55.095178 c -0.0079,0.5763 2.865734,3.836876 6.384764,7.245375 3.519246,3.4085 6.398824,6.650584 6.398824,7.204522 0,2.467113 -4.83031,14.720289 -6.115698,15.51474 -0.784692,0.484955 -4.158768,1.223757 -7.497508,1.640913 C 0.77805489,87.882381 0,88.894403 0,99.999871 c 0,11.105469 0.77805489,12.117509 10.235666,13.299149 3.33874,0.41716 6.712816,1.15455 7.497508,1.63951 1.992555,1.2315 6.273485,14.14129 5.49882,16.58238 -0.351056,1.10561 -2.46138,3.39977 -4.688961,5.0988 -2.227582,1.69902 -4.854899,4.31842 -5.839641,5.82138 -1.655342,2.52635 -1.575872,3.15703 1.064788,8.35668 3.250253,6.39981 8.084676,12.02854 10.315933,12.01177 0.830342,-0.006 4.310065,-1.31521 7.732748,-2.90857 3.422757,-1.59337 6.856905,-2.8973 7.631283,-2.8973 0.774306,0 4.198141,2.50038 7.608781,5.55516 l 6.20022,5.55375 -2.138086,8.30035 c -2.510706,9.74651 -2.230541,10.35879 6.790407,14.85413 8.735606,4.35312 11.730501,3.98307 15.996427,-1.97896 6.584447,-9.20229 6.131841,-8.92924 13.559764,-8.20033 3.721241,0.36518 7.644987,1.11427 8.718652,1.66485 1.073725,0.55061 2.824042,4.01346 3.890341,7.69471 1.06623,3.68122 2.47624,7.34698 3.13394,8.14679 2.32574,2.82834 19.92591,1.03481 22.00371,-2.24233 0.53639,-0.84609 0.9921,-4.67958 1.01128,-8.51866 0.0193,-3.83909 0.42015,-7.56615 0.8902,-8.28204 1.15817,-1.76383 12.52297,-7.42285 14.90624,-7.42285 1.05224,0 4.41385,2.09432 7.47076,4.65372 3.05685,2.55939 6.61676,4.6523 7.91017,4.6523 2.71096,0 13.50191,-8.16522 15.34715,-11.61316 1.30788,-2.44389 -0.14274,-6.36971 -4.80026,-12.99632 -1.19364,-1.69839 -2.17045,-3.74733 -2.17045,-4.5523 0,-1.67576 6.8781,-12.87363 8.6877,-14.14425 0.66079,-0.46401 4.72278,-0.51993 9.02706,-0.12536 5.51109,0.50522 8.3498,0.28255 9.59479,-0.75073 2.36705,-1.96445 6.65383,-16.09794 5.74812,-18.9515 -0.42632,-1.34342 -3.75448,-3.64325 -8.16369,-5.64249 -4.15683,-1.88479 -7.47684,-4.14057 -7.52003,-5.10867 -0.0425,-0.95338 -0.0774,-4.35037 -0.0774,-7.549609 0,-3.199234 0.0346,-6.597613 0.0774,-7.551018 0.0433,-0.968081 3.3632,-3.222461 7.52003,-5.107257 4.40921,-1.999229 7.73737,-4.29906 8.16369,-5.642486 0.90571,-2.853568 -3.38107,-16.987065 -5.74812,-18.951503 -1.24499,-1.033289 -4.0837,-1.255952 -9.59479,-0.750733 -4.30428,0.394575 -8.36627,0.338665 -9.02706,-0.125356 -1.8096,-1.270613 -8.6877,-12.469893 -8.6877,-14.145661 0,-0.804976 0.97681,-2.852507 2.17045,-4.550898 4.65752,-6.626601 6.10814,-10.552422 4.80026,-12.996314 -1.84524,-3.447937 -12.63619,-11.614569 -15.34715,-11.614569 -1.29341,0 -4.85332,2.094317 -7.91017,4.653709 -3.05691,2.559388 -6.41852,4.653718 -7.47076,4.653718 -2.38327,0 -13.74807,-5.65904 -14.90624,-7.422844 -0.47005,-0.715891 -0.87094,-4.442963 -0.8902,-8.282039 -0.0195,-3.8390861 -0.47489,-7.6725823 -1.01128,-8.5186626 -1.29866,-2.0482165 -8.66009,-3.51655331 -14.56678,-3.63958864 z M 101.28735,37.300071 c 4.16289,0.06332 8.3197,0.781559 13.77243,2.17614 12.66801,3.239908 21.40172,8.285194 30.30402,17.506372 8.68454,8.995521 13.71844,18.515235 16.34294,30.904111 2.13563,10.081084 2.13563,14.145276 0,24.226366 -2.6245,12.38885 -7.6584,21.9072 -16.34294,30.90269 -8.9023,9.2212 -17.63601,14.26786 -30.30402,17.50777 -11.08606,2.83539 -18.339588,2.82132 -29.318122,-0.0549 -11.61617,-3.0432 -20.842794,-8.2233 -28.608296,-16.06122 C 48.4277,135.6206 44.967807,130.27916 41.604547,120.43312 32.958668,95.12226 40.530744,68.63665 61.312464,51.499252 c 7.719267,-6.365648 15.43521,-10.034647 26.168699,-12.442773 5.474798,-1.228348 9.643311,-1.819741 13.806187,-1.756408 z"
     id="path6000"
     inkscape:connector-curvature="0" />
  <g
     id="g2943"
     transform="matrix(1.1232972,0,0,1.1232972,874.84475,103.12862)"
     style="stroke-width:0.89023644">
    <path
       inkscape:connector-curvature="0"
       id="path1270-2"
       d="m -707.0446,-42.315216 a 7.5050204,7.5050204 0 0 0 -0.53063,0.0186 7.5050204,7.5050204 0 0 0 -0.74502,0.0905 7.5050204,7.5050204 0 0 0 -0.7317,0.16445 7.5050204,7.5050204 0 0 0 -0.71173,0.23636 7.5050204,7.5050204 0 0 0 -0.6851,0.30626 7.5050204,7.5050204 0 0 0 -0.65048,0.37351 7.5050204,7.5050204 0 0 0 -0.61053,0.43609 7.5050204,7.5050204 0 0 0 -0.56325,0.49535 7.5050204,7.5050204 0 0 0 -0.51133,0.54928 7.5050204,7.5050204 0 0 0 -0.45407,0.59721 7.5050204,7.5050204 0 0 0 -0.39215,0.63916 7.5050204,7.5050204 0 0 0 -0.32624,0.67577 7.5050204,7.5050204 0 0 0 -0.25765,0.70441 7.5050204,7.5050204 0 0 0 -0.18509,0.72704 7.5050204,7.5050204 0 0 0 -0.11252,0.74169 7.5050204,7.5050204 0 0 0 -0.0373,0.74901 v 16.67736 6.8e-4 a 7.5050204,7.5050204 0 0 0 0.0186,0.53064 7.5050204,7.5050204 0 0 0 0.0906,0.74501 7.5050204,7.5050204 0 0 0 0.16445,0.731711 7.5050204,7.5050204 0 0 0 0.23635,0.71173 7.5050204,7.5050204 0 0 0 0.30693,0.68509 7.5050204,7.5050204 0 0 0 0.37284,0.65048 7.5050204,7.5050204 0 0 0 0.43676,0.61053 7.5050204,7.5050204 0 0 0 0.49468,0.56326 7.5050204,7.5050204 0 0 0 0.54928,0.51132 7.5050204,7.5050204 0 0 0 0.59721,0.45407 7.5050204,7.5050204 0 0 0 0.63916,0.39215 7.5050204,7.5050204 0 0 0 0.67577,0.32624 7.5050204,7.5050204 0 0 0 0.70441,0.25766 7.5050204,7.5050204 0 0 0 0.72704,0.18509 7.5050204,7.5050204 0 0 0 0.74169,0.11251 7.5050204,7.5050204 0 0 0 0.74968,0.0373 h 36.02519 a 22.376079,22.376079 0 0 0 0.28896,-0.59788 22.376079,22.376079 0 0 0 0.76699,-2.10123 22.376079,22.376079 0 0 0 0.55327,-2.16714 22.376079,22.376079 0 0 0 0.33422,-2.21109 22.376079,22.376079 0 0 0 0.11186,-2.234391 22.376079,22.376079 0 0 0 -0.0559,-1.582579 22.376079,22.376079 0 0 0 -0.26965,-2.22041 22.376079,22.376079 0 0 0 -0.49002,-2.18245 22.376079,22.376079 0 0 0 -0.70507,-2.12254 22.376079,22.376079 0 0 0 -0.91346,-2.04131 22.376079,22.376079 0 0 0 -1.1132,-1.94011 22.376079,22.376079 0 0 0 -1.30095,-1.819601 22.376079,22.376079 0 0 0 -1.47606,-1.68046 22.376079,22.376079 0 0 0 -1.63651,-1.52466 22.376079,22.376079 0 0 0 -1.78099,-1.35354 22.376079,22.376079 0 0 0 -1.90682,-1.16913 22.376079,22.376079 0 0 0 -2.01401,-0.97272 22.376079,22.376079 0 0 0 -2.10056,-0.76699 22.376079,22.376079 0 0 0 -2.16715,-0.55327 22.376079,22.376079 0 0 0 -2.21175,-0.33423 22.376079,22.376079 0 0 0 -2.23372,-0.11185 h -15.70464 a 7.5050204,7.5050204 0 0 1 -6.8e-4,0 z"
       style="opacity:1;fill:url(#linearGradient2951);fill-opacity:1;stroke:#ff0000;stroke-width:0;stroke-miterlimit:4;stroke-dasharray:none;stroke-dashoffset:0;stroke-opacity:1" />
    <path
       inkscape:connector-curvature="0"
       id="path1228-8"
       d="m -714.54938,-17.888555 v 7.22715 37.246916 a 7.5050204,7.5050204 0 0 0 0.0186,0.530634 7.5050204,7.5050204 0 0 0 0.0906,0.745019 7.5050204,7.5050204 0 0 0 0.16445,0.731701 7.5050204,7.5050204 0 0 0 0.23635,0.711729 7.5050204,7.5050204 0 0 0 0.30626,0.685099 7.5050204,7.5050204 0 0 0 0.37351,0.650475 7.5050204,7.5050204 0 0 0 0.43609,0.610527 7.5050204,7.5050204 0 0 0 0.49535,0.56326 7.5050204,7.5050204 0 0 0 0.54928,0.511326 7.5050204,7.5050204 0 0 0 0.59721,0.454068 7.5050204,7.5050204 0 0 0 0.63916,0.392149 7.5050204,7.5050204 0 0 0 0.67578,0.326237 7.5050204,7.5050204 0 0 0 0.7044,0.25766 7.5050204,7.5050204 0 0 0 0.72704,0.18509 7.5050204,7.5050204 0 0 0 0.74169,0.112519 7.5050204,7.5050204 0 0 0 0.74901,0.03728 h 31.5491 a 22.376079,22.376079 0 0 0 1.58324,-0.05593 22.376079,22.376079 0 0 0 2.21974,-0.269646 22.376079,22.376079 0 0 0 2.18246,-0.489353 22.376079,22.376079 0 0 0 2.12254,-0.705735 22.376079,22.376079 0 0 0 2.04197,-0.913464 22.376079,22.376079 0 0 0 1.94012,-1.112534 22.376079,22.376079 0 0 0 1.81893,-1.301618 22.376079,22.376079 0 0 0 1.68045,-1.476056 22.376079,22.376079 0 0 0 1.52466,-1.636509 22.376079,22.376079 0 0 0 1.35355,-1.780322 22.376079,22.376079 0 0 0 1.16913,-1.906821 22.376079,22.376079 0 0 0 0.97272,-2.014012 22.376079,22.376079 0 0 0 0.76699,-2.101233 22.376079,22.376079 0 0 0 0.55393,-2.167144 22.376079,22.376079 0 0 0 0.33423,-2.211752 22.376079,22.376079 0 0 0 0.11119,-2.233721 22.376079,22.376079 0 0 0 -0.0559,-1.582582 22.376079,22.376079 0 0 0 -0.26965,-2.2204074 22.376079,22.376079 0 0 0 -0.48935,-2.18246 22.376079,22.376079 0 0 0 -0.70574,-2.122535 22.376079,22.376079 0 0 0 -0.91346,-2.041975 22.376079,22.376079 0 0 0 -1.11254,-1.94011104 22.376079,22.376079 0 0 0 -1.30161,-1.81893696 22.376079,22.376079 0 0 0 -1.47606,-1.68045 22.376079,22.376079 0 0 0 -1.63651,-1.524659 22.376079,22.376079 0 0 0 -1.78032,-1.353549 22.376079,22.376079 0 0 0 -1.90682,-1.169134 22.376079,22.376079 0 0 0 -2.01401,-0.97272 22.376079,22.376079 0 0 0 -2.10123,-0.76698 22.376079,22.376079 0 0 0 -2.16715,-0.5532696 22.376079,22.376079 0 0 0 -2.21175,-0.33423 22.376079,22.376079 0 0 0 -2.23372,-0.11185 h -31.5491 a 7.5050204,7.5050204 0 0 1 -0.74901,-0.0373 7.5050204,7.5050204 0 0 1 -0.74169,-0.11252 7.5050204,7.5050204 0 0 1 -0.72704,-0.18509 7.5050204,7.5050204 0 0 1 -0.7044,-0.25766 7.5050204,7.5050204 0 0 1 -0.67578,-0.32623 7.5050204,7.5050204 0 0 1 -0.63916,-0.39215 7.5050204,7.5050204 0 0 1 -0.59721,-0.45407 7.5050204,7.5050204 0 0 1 -0.54928,-0.51133 7.5050204,7.5050204 0 0 1 -0.49535,-0.56326 7.5050204,7.5050204 0 0 1 -0.43609,-0.61052 7.5050204,7.5050204 0 0 1 -0.37351,-0.65048 7.5050204,7.5050204 0 0 1 -0.30626,-0.6851 7.5050204,7.5050204 0 0 1 -0.23635,-0.71173 7.5050204,7.5050204 0 0 1 -0.16445,-0.7317 7.5050204,7.5050204 0 0 1 -0.0906,-0.74502 7.5050204,7.5050204 0 0 1 -0.009,-0.253 z"
       style="opacity:1;fill:url(#linearGradient2965);fill-opacity:1;stroke:#ff0000;stroke-width:0;stroke-miterlimit:4;stroke-dasharray:none;stroke-dashoffset:0;stroke-opacity:1" />
  </g>
</svg>
